# xmcd
#
# Track frame offsets: 
#        150
#        16214
#        28529
#        41079
#        69525
#        91265
#        109826
#        125164
#        143690
#        160477
#        184126
#
# Disc length: 2707 seconds
#
# Revision: 1
# Processed by: cddbd v1.5.2PL0 Copyright (c) Steve Scherf et al.
# Submitted via: ExactAudioCopy v1.0b3
#
DISCID=950a910b
DTITLE=Sadie Johnson, Heather Crosse,Eliana Cargnelutti - Girls With G
DTITLE=uitars
DYEAR=2015
DGENRE=Blues
TTITLE0=Girl Band
TTITLE1=Tush
TTITLE2=This House Just Ain't My Home
TTITLE3=Feelin' Alright
TTITLE4=She May Have You, But I Got Yo Heart
TTITLE5=I Hate Myself For Loving You
TTITLE6=Give Me A Kiss
TTITLE7=Shades Of Love
TTITLE8=Life
TTITLE9=Say Goodbye
TTITLE10=Wish You Hadn't Gone
EXTD=
EXTT0=
EXTT1=
EXTT2=
EXTT3=
EXTT4=
EXTT5=
EXTT6=
EXTT7=
EXTT8=
EXTT9=
EXTT10=
PLAYORDER=
